<?xml version="1.0" ?>
<mxfile host="app.diagrams.net">
  <diagram name="Deal Processing Architecture">
    <mxGraphModel dx="1134" dy="541" grid="1" gridSize="10" guides="1" tooltips="1" connect="1" arrows="1" fold="1" page="1" pageScale="1" pageWidth="827" pageHeight="1169" math="0" shadow="0">
      <root>
        <mxCell id="0"/>
        <mxCell id="1" parent="0"/>
        <mxCell id="2" value="FileWatcher" style="shape=rectangle;rounded=1;whiteSpace=wrap;html=1;fillColor=#dae8fc;strokeColor=#6c8ebf;" vertex="1" parent="1">
          <mxGeometry x="60" y="60" width="140" height="60" as_="geometry"/>
        </mxCell>
        <mxCell id="3" value="FileProcessor" style="shape=rectangle;rounded=1;whiteSpace=wrap;html=1;fillColor=#dae8fc;strokeColor=#6c8ebf;" vertex="1" parent="1">
          <mxGeometry x="240" y="60" width="140" height="60" as_="geometry"/>
        </mxCell>
        <mxCell id="4" value="DealProcessor" style="shape=rectangle;rounded=1;whiteSpace=wrap;html=1;fillColor=#dae8fc;strokeColor=#6c8ebf;" vertex="1" parent="1">
          <mxGeometry x="420" y="60" width="140" height="60" as_="geometry"/>
        </mxCell>
        <mxCell id="5" value="XmlGenerator" style="shape=rectangle;rounded=1;whiteSpace=wrap;html=1;fillColor=#dae8fc;strokeColor=#6c8ebf;" vertex="1" parent="1">
          <mxGeometry x="600" y="60" width="140" height="60" as_="geometry"/>
        </mxCell>
        <mxCell id="6" value="Database" style="shape=rectangle;rounded=1;whiteSpace=wrap;html=1;fillColor=#dae8fc;strokeColor=#6c8ebf;" vertex="1" parent="1">
          <mxGeometry x="780" y="60" width="140" height="60" as_="geometry"/>
        </mxCell>
        <mxCell id="7" value="ExecutorPool" style="shape=rectangle;rounded=1;whiteSpace=wrap;html=1;fillColor=#dae8fc;strokeColor=#6c8ebf;" vertex="1" parent="1">
          <mxGeometry x="420" y="180" width="140" height="60" as_="geometry"/>
        </mxCell>
        <mxCell id="8" value="Monitoring" style="shape=rectangle;rounded=1;whiteSpace=wrap;html=1;fillColor=#dae8fc;strokeColor=#6c8ebf;" vertex="1" parent="1">
          <mxGeometry x="600" y="180" width="140" height="60" as_="geometry"/>
        </mxCell>
        <mxCell id="101" style="endArrow=block;" edge="1" parent="1" source="2" target="3">
          <mxGeometry relative="1" as_="geometry"/>
        </mxCell>
        <mxCell id="102" style="endArrow=block;" edge="1" parent="1" source="3" target="4">
          <mxGeometry relative="1" as_="geometry"/>
        </mxCell>
        <mxCell id="103" style="endArrow=block;" edge="1" parent="1" source="4" target="5">
          <mxGeometry relative="1" as_="geometry"/>
        </mxCell>
        <mxCell id="104" style="endArrow=block;" edge="1" parent="1" source="5" target="6">
          <mxGeometry relative="1" as_="geometry"/>
        </mxCell>
        <mxCell id="105" style="endArrow=block;" edge="1" parent="1" source="4" target="7">
          <mxGeometry relative="1" as_="geometry"/>
        </mxCell>
        <mxCell id="106" style="endArrow=block;" edge="1" parent="1" source="7" target="8">
          <mxGeometry relative="1" as_="geometry"/>
        </mxCell>
      </root>
    </mxGraphModel>
  </diagram>
</mxfile>
